<?xml version="1.0" encoding="iso-8859-1"?>
<!-- Generator: Adobe Illustrator 18.0.0, SVG Export Plug-In . SVG Version: 6.00 Build 0)  -->
<!DOCTYPE svg PUBLIC "-//W3C//DTD SVG 1.1//EN" "http://www.w3.org/Graphics/SVG/1.1/DTD/svg11.dtd">
<svg version="1.1" id="_x34_" xmlns="http://www.w3.org/2000/svg" xmlns:xlink="http://www.w3.org/1999/xlink" x="0px" y="0px"
	 viewBox="0 0 512 512" style="enable-background:new 0 0 512 512;" xml:space="preserve">
<g>
	<path style="fill:#FAFAE3;" d="M318.876,305.793c-76.285,70.643-160.256,147.337-160.256,147.337l-91.82-3.024l-7.85-0.247
		l-0.164-6.212l-3.025-93.375c0,0,35.976-39.41,81.354-88.794l16.598,28.372l8.504-55.599c23.22-25.182,47.504-51.429,69.826-75.467
		l-0.818,111.444l-0.082,6.458l-0.082,0.082l-10.384,14.718l3.107,0.327l93.455,10.22L318.876,305.793z"/>
	<path style="fill:#CC4854;" d="M508.894,0c0,0-0.491,5.068-1.635,13.654c-5.069,35.894-23.139,133.602-75.14,185.602
		c-9.403,9.402-26.328,25.511-47.259,45.133l-107.518-6.623l-2.78-0.164l0.981-10.873l11.61-126.733
		c8.912-9.322,16.353-17.007,21.749-22.485l20.359,23.711l0.817-41.617C384.124,20.685,463.761,6.132,495.24,1.635
		C503.825,0.49,508.894,0,508.894,0z"/>
	<path style="fill:#78B8D8;" d="M384.859,244.389c-10.22,9.65-21.422,20.113-33.196,30.989l-40.555,12.51l-1.962-0.164h-0.082
		l-74.895-6.378l-3.107-0.246v-4.334l0.082-6.54l0.899-111.444c20.931-22.485,40.146-43.008,55.108-58.787l-11.61,126.733
		l-0.981,10.873l2.78,0.164L384.859,244.389z"/>
	<path style="fill:#5E99B0;" d="M311.111,287.874l24.853,2.109c5.317-4.933,10.548-9.792,15.683-14.569L311.111,287.874
		L311.111,287.874z"/>
	<polygon style="fill:#FAFAE3;" points="311.111,287.874 309.159,287.708 311.163,287.992 	"/>
	<polygon style="fill:#E8E3C9;" points="327.211,290.267 311.163,287.992 309.159,287.708 231.104,276.646 220.658,291.491 
		317.214,302.026 326.249,303.012 	"/>
	<polygon style="fill:#703E24;" points="363.601,140.387 300.398,214.546 277.341,237.766 237.849,277.667 234.17,281.346 
		223.786,291.812 66.801,450.107 9.157,508.157 5.397,512 0,506.359 3.598,502.598 58.788,443.647 109.645,389.355 231.145,270.228 
		231.227,270.228 275.542,226.729 	"/>
</g>
</svg>
